<svg width="55" height="45" viewBox="0 0 55 45" fill="none" xmlns="http://www.w3.org/2000/svg">
<path d="M27.5 7.45837L27.5 2.87504" stroke="black" stroke-width="2" stroke-linecap="round"/>
<path d="M22.9167 32.6666L21.7709 25.7916" stroke="black" stroke-width="2" stroke-linecap="round"/>
<path d="M32.0831 32.6666L33.229 25.7916" stroke="black" stroke-width="2" stroke-linecap="round"/>
<path d="M4.58334 16.625H50.4167H46.88C45.2839 16.625 44.4859 16.625 43.9293 17.0895C43.3728 17.554 43.23 18.3391 42.9445 19.9095L39.5555 38.5489C39.27 40.1192 39.1273 40.9043 38.5707 41.3688C38.0141 41.8333 37.2161 41.8333 35.62 41.8333H19.38C17.7839 41.8333 16.9859 41.8333 16.4293 41.3688C15.8728 40.9043 15.73 40.1192 15.4445 38.5489L12.0555 19.9095C11.77 18.3391 11.6273 17.554 11.0707 17.0895C10.5141 16.625 9.71609 16.625 8.12004 16.625H4.58334Z" stroke="black" stroke-width="2" stroke-linecap="round"/>
</svg>
