<svg width="25" height="24" viewBox="0 0 25 24" fill="none" xmlns="http://www.w3.org/2000/svg">
<path fill-rule="evenodd" clip-rule="evenodd" d="M4.87575 2H20.8646C21.9684 2 22.8633 2.89543 22.8633 4V20C22.8633 21.1046 21.9684 22 20.8646 22H4.87575C3.77195 22 2.87714 21.1046 2.87714 20V4C2.87714 2.89543 3.77195 2 4.87575 2ZM4.87575 4V20H20.8646V4H4.87575ZM12.0039 12.0044H13.8695V18H15.8681V12.0044H17.8492V10.0044H15.8681V9C15.8681 8.44772 16.3155 8 16.8674 8H17.8667V6H16.8674C15.2117 6 13.8695 7.34315 13.8695 9V10.0044H12.0039V12.0044Z" fill="black"/>
</svg>
