<svg width="25" height="24" viewBox="0 0 25 24" fill="none" xmlns="http://www.w3.org/2000/svg">
<path fill-rule="evenodd" clip-rule="evenodd" d="M16.8397 2H8.84526C5.53385 2 2.84943 4.68629 2.84943 8V16C2.84943 19.3137 5.53385 22 8.84526 22H16.8397C20.1511 22 22.8355 19.3137 22.8355 16V8C22.8355 4.68629 20.1511 2 16.8397 2ZM4.84804 8C4.84804 5.79086 6.63766 4 8.84526 4H16.8397C19.0473 4 20.8369 5.79086 20.8369 8V16C20.8369 18.2091 19.0473 20 16.8397 20H8.84526C6.63766 20 4.84804 18.2091 4.84804 16V8ZM12.8425 17C10.083 17 7.84596 14.7614 7.84596 12C7.84596 9.23858 10.083 7 12.8425 7C15.602 7 17.839 9.23858 17.839 12C17.839 14.7614 15.602 17 12.8425 17ZM12.8425 15C14.4982 15 15.8404 13.6569 15.8404 12C15.8404 10.3431 14.4982 9 12.8425 9C11.1868 9 9.84457 10.3431 9.84457 12C9.84457 13.6569 11.1868 15 12.8425 15ZM18.8383 7C18.8383 7.55228 18.3909 8 17.839 8C17.2871 8 16.8397 7.55228 16.8397 7C16.8397 6.44772 17.2871 6 17.839 6C18.3909 6 18.8383 6.44772 18.8383 7Z" fill="black"/>
</svg>
