<svg width="25" height="24" viewBox="0 0 25 24" fill="none" xmlns="http://www.w3.org/2000/svg">
<path fill-rule="evenodd" clip-rule="evenodd" d="M21.928 4.50827L23.3417 4.67349L22.7062 5.948C22.3963 6.56953 22.0861 7.19105 21.7756 7.81258C21.7387 7.94422 21.674 8.05962 21.5783 8.20987C21.5383 8.27265 21.4017 8.47236 21.3953 8.48194C21.3592 8.53608 21.3326 8.57878 21.3134 8.61299V11.0015C21.3134 17.1135 15.4025 20.9974 9.82037 20.9974C8.67813 20.9974 7.81029 20.9427 6.81656 20.7257C5.1812 20.3685 3.96417 19.6587 3.40725 18.418L2.83389 17.1407L4.2273 17.0124C5.48784 16.8964 6.58076 16.6561 7.42008 16.3343C5.11586 15.9635 3.82459 14.9508 3.82459 13.0489V12.0489H4.8239C5.04345 12.0489 5.24143 12.0311 5.41843 11.9983C3.68908 10.9636 2.82291 9.30379 2.82291 7.00152C2.82272 6.9034 2.82272 6.90339 2.82213 6.79847C2.81563 5.63803 2.87792 5.01797 3.19537 4.22659C3.39883 3.71941 3.69291 3.24988 4.08871 2.81967L4.84279 2L5.57595 2.83847C7.99203 5.60161 10.3804 7.27795 12.8189 7.48072C12.8293 4.93105 14.7549 3.00152 17.316 3.00152C18.5099 3.00152 19.5929 3.45501 20.4439 4.27273C20.9097 4.36851 21.4044 4.44709 21.928 4.50827ZM19.7186 6.16202L19.4122 6.0926L19.2007 5.86027C18.6891 5.29855 18.047 5.00152 17.316 5.00152C15.854 5.00152 14.8175 6.04391 14.8175 7.50152C14.8175 7.73974 14.8113 7.88942 14.7817 8.08615C14.6633 8.87116 14.2233 9.50152 13.3185 9.50152C10.3225 9.50152 7.61971 7.89542 4.98408 5.15228C4.8482 5.56561 4.81625 5.99047 4.82071 6.78727C4.82131 6.89384 4.82131 6.89384 4.82152 7.00152C4.82152 9.04953 5.65066 10.1698 7.61382 10.7942L8.31043 11.0158V11.7472C8.31043 12.6342 7.47068 13.4691 6.24199 13.8431C6.80523 14.2708 7.95712 14.5015 9.82072 14.5015H10.82V15.5015C10.82 16.9343 9.17489 18.0561 6.68975 18.6419C7.50022 18.8903 8.57934 18.9974 9.82037 18.9974C14.4316 18.9974 19.3147 15.7888 19.3147 11.0015V8.50152C19.3147 8.20774 19.3998 7.95273 19.5412 7.68759C19.5965 7.58393 19.6574 7.48509 19.7325 7.37237C19.7466 7.35115 19.7991 7.27426 19.8407 7.21279L19.9199 7.05429C20.0483 6.79745 20.1766 6.54061 20.3048 6.28377C20.1055 6.24599 19.9101 6.20541 19.7186 6.16202Z" fill="black"/>
</svg>
